<?xml version="1.0" encoding="iso-8859-1"?>
<!-- Generator: Adobe Illustrator 16.0.0, SVG Export Plug-In . SVG Version: 6.00 Build 0)  -->
<!DOCTYPE svg PUBLIC "-//W3C//DTD SVG 1.1//EN" "http://www.w3.org/Graphics/SVG/1.1/DTD/svg11.dtd">
<svg version="1.1" id="Capa_1" xmlns="http://www.w3.org/2000/svg" xmlns:xlink="http://www.w3.org/1999/xlink" x="0px" y="0px"
	 width="39.818px" height="39.818px" viewBox="0 0 39.818 39.818" style="enable-background:new 0 0 39.818 39.818;"
	 xml:space="preserve">
<g>
	<g>
		<path d="M7.843,11.369c0.068,0.036,0.146,0.065,0.225,0.065c8.604,0.049,13.42,2.377,15.944,4.321
			c0.146,0.11,0.344,0.136,0.51,0.062c0.023-0.011,0.043-0.021,0.064-0.035c0.178-0.113,0.266-0.324,0.219-0.53
			c-0.441-2.005-1.213-4.116-2.234-6.292c-1.53,0.904-2.485,2.146-2.659,2.386C19.524,10.817,15.32,5.333,9.417,9.6
			C8.779,10.062,8.253,10.667,7.843,11.369z"/>
		<path d="M25.909,21.589c-0.027,0.209,0.075,0.412,0.264,0.513c0.14,0.069,0.3,0.071,0.438,0.012
			c0.049-0.021,0.092-0.051,0.133-0.088c2.207-2.018,4.27-4.708,6.158-7.949c-0.279-1.89-1.139-3.493-2.498-4.477
			c-2.875-2.079-5.346-1.838-7.168-0.987C26.027,14.534,26.273,18.872,25.909,21.589z"/>
		<path d="M32.997,15.365c-4.207,6.841-8.463,9.673-11.203,10.779c-0.185,0.077-0.317,0.271-0.312,0.481
			c0.011,0.211,0.146,0.396,0.351,0.457c1.203,0.381,2.521,0.658,3.892,0.885c1.94-1.786,3.959-3.934,5.35-6.166
			C32.406,19.659,33.012,17.4,32.997,15.365z"/>
		<path d="M15.231,24.847c-0.178,0.115-0.266,0.326-0.221,0.531c0.335,1.516,0.853,3.088,1.517,4.701
			c1.713,1.397,3.059,2.34,3.352,2.539c0,0,0.013,0.034,0.031,0.02c0.02,0.015,0.031-0.02,0.031-0.02
			c0.385-0.265,2.593-1.808,5.077-4.011c-4.54-0.821-7.441-2.373-9.211-3.733C15.638,24.745,15.409,24.737,15.231,24.847z"/>
		<path d="M13.911,19.042c0.025-0.209-0.08-0.414-0.267-0.512c-0.188-0.097-0.413-0.065-0.569,0.074
			c-1.279,1.17-2.512,2.569-3.688,4.159c1.677,2.371,3.96,4.6,5.977,6.338C13.731,24.655,13.611,21.294,13.911,19.042z"/>
		<path d="M7.442,12.175c-1.095,2.616-0.791,6.265,1.304,9.626c0.066,0.107,0.146,0.215,0.215,0.324
			c3.479-4.605,6.812-6.701,9.067-7.642c0.185-0.08,0.316-0.273,0.308-0.483c-0.01-0.211-0.149-0.393-0.351-0.456
			C14.986,12.597,11.431,12.148,7.442,12.175z"/>
		<path d="M1.343,12.679c0.74,0,1.342-0.603,1.342-1.344V3.877h7.458c0.742,0,1.344-0.602,1.344-1.342
			c0-0.74-0.603-1.343-1.344-1.343H2.487c-1.369,0-2.484,1.114-2.484,2.483v7.657C0.001,12.076,0.601,12.679,1.343,12.679z"/>
		<path d="M37.333,1.194h-7.658c-0.741,0-1.342,0.603-1.342,1.343c0,0.74,0.601,1.342,1.342,1.342h7.457v7.458
			c0,0.741,0.603,1.343,1.343,1.343c0.741,0,1.344-0.602,1.344-1.343V3.68C39.818,2.311,38.702,1.194,37.333,1.194z"/>
		<path d="M38.475,27.14c-0.74,0-1.343,0.602-1.343,1.344v7.457h-7.457c-0.741,0-1.342,0.602-1.342,1.342s0.601,1.344,1.342,1.344
			h7.656c1.371,0,2.483-1.115,2.483-2.483v-7.658C39.818,27.741,39.216,27.14,38.475,27.14z"/>
		<path d="M10.142,35.94H2.684v-7.457c0-0.742-0.602-1.344-1.342-1.344C0.601,27.14,0,27.741,0,28.483v7.656
			c0,1.369,1.112,2.484,2.483,2.484h7.657c0.742,0,1.343-0.604,1.343-1.345C11.486,36.54,10.885,35.94,10.142,35.94z"/>
	</g>
</g>
<g>
</g>
<g>
</g>
<g>
</g>
<g>
</g>
<g>
</g>
<g>
</g>
<g>
</g>
<g>
</g>
<g>
</g>
<g>
</g>
<g>
</g>
<g>
</g>
<g>
</g>
<g>
</g>
<g>
</g>
</svg>
